 <svg
      className="hardHatSkull"
      viewBox="0 -80 512 592"
      fill="none"
      xmlns="http://www.w3.org/2000/svg"
    >
    <path d="M448 225.64v99a64 64 0 01-40.23 59.42l-23.68 9.47A32 32 0 00364.6 417l-10 50.14A16 16 0 01338.88 480H173.12a16 16 0 01-15.69-12.86L147.4 417a32 32 0 00-19.49-23.44l-23.68-9.47A64 64 0 0164 324.67V224c0-105.92 85.77-191.81 191.65-192S448 119.85 448 225.64z" fill="none" stroke="currentColor" stroke-linecap="round" stroke-miterlimit="10" stroke-width="32"/>
      
      <g id="skull">
        <path 
          d="M448 225.64v99a64 64 0 01-40.23 59.42l-23.68 9.47A32 32 0 00364.6 417l-10 50.14A16 16 0 01338.88 480H173.12a16 16 0 01-15.69-12.86L147.4 417a32 32 0 00-19.49-23.44l-23.68-9.47A64 64 0 0164 324.67V224c0-105.92 85.77-191.81 191.65-192S448 119.85 448 225.64z" 
          fill="none" 
          stroke="currentColor" 
          strokeLinecap="round" 
          strokeMiterlimit="10" 
          strokeWidth="32"
        />
        
        <circle 
        cx="168"
        cy="280" 
        r="40" 
        fill="none" 
        stroke="currentColor" 
        stroke-linecap="round" 
        stroke-miterlimit="10" 
        stroke-width="32"/>
        
        
        <circle 
          cx="344" 
          cy="280" 
          r="40" 
          fill="none" 
          stroke="currentColor" 
          stroke-linecap="round" 
          stroke-miterlimit="10" 
          stroke-width="32"
        />
        
        <path 
          fill="none" 
          stroke="currentColor" 
          stroke-linecap="round" 
          stroke-linejoin="round" 
          stroke-width="32" 
          d="M256 336l-16 48h32l-16-48zM256 448v32M208 448v32M304 448v32"
        />
      </g>

      {/* Hard hat positioned on top of skull */}
      <g id="hard-hat" transform="translate(256, -86) scale(1.1) translate(-256, 0)">
        {/* Bottom of brim */}
        <ellipse 
          cx="256" 
          cy="246" 
          rx="230" 
          ry="36" 
          fill="#fbbf24"
           stroke="currentColor" 
          stroke-linecap="round" 
          stroke-miterlimit="10" 
          stroke-width="32"
        />
        
        {/* Top of brim */}
        <ellipse 
          cx="256" 
          cy="236" 
          rx="230" 
          ry="36" 
          fill="#fbbf24"
           stroke="currentColor" 
          stroke-linecap="round" 
          stroke-miterlimit="10" 
          stroke-width="14"
        />
        
        {/* Brim outline */}
        <ellipse 
          cx="256" 
          cy="236" 
          rx="230" 
          ry="36" 
          stroke="#000" 
          strokeWidth="14"
        />
        
        {/* Main dome with rounded bottom */}
        <path 
          d="M88 200v-20c0-74 76-136 168-136s168 62 168 136v20c0 20-16 36-36 36H124c-20 0-36-16-36-36z" 
          fill="#fbbf24"
           stroke="currentColor" 
          stroke-linecap="round" 
          stroke-miterlimit="10" 
          stroke-width="10"
        />
        
        {/* Dome outline */}
        
        
        
        {/* Front ridge detail */}
        <path 
          d="M200 160c0-16 25-28 56-28s56 12 56 28" 
          stroke="#000" 
          stroke-width="14" 
          stroke-linecap="round"
          fill="none"
        />
        
        {/* Side ventilation slots */}
     
          {/* Left vent */}
        <line x1="120" y1="170" x2="120" y2="210" 
        stroke="#000" 
        stroke-width="14" 
        stroke-linecap="round" />
          
          {/* Right vent */}
          <line x1="392" y1="170" x2="392" y2="210" stroke="#000" stroke-width="14" stroke-linecap="round"/>
        
      </g>
    </svg>
